<svg width="62" height="62" viewBox="0 0 62 62" fill="none" xmlns="http://www.w3.org/2000/svg">
<g clip-path="url(#clip0)">
<path d="M61.9393 18.2282C61.7941 14.9339 61.2613 12.6691 60.4982 10.7066C59.7109 8.62347 58.4998 6.75845 56.9129 5.20805C55.3625 3.63352 53.4852 2.41005 51.4262 1.63509C49.4524 0.871951 47.1994 0.339223 43.9051 0.193977C40.5862 0.0364298 39.5326 0 31.1149 0C22.6973 0 21.6437 0.0364298 18.3371 0.181676C15.0428 0.326922 12.778 0.860123 10.8159 1.62278C8.73235 2.41005 6.86733 3.62122 5.31693 5.20805C3.74241 6.75845 2.51941 8.63577 1.74397 10.6948C0.980837 12.6691 0.44811 14.9216 0.302864 18.2159C0.145317 21.5348 0.108887 22.5884 0.108887 31.0061C0.108887 39.4237 0.145317 40.4773 0.290563 43.7839C0.435809 47.0782 0.969009 49.343 1.73214 51.3055C2.51941 53.3887 3.74241 55.2537 5.31693 56.8041C6.86733 58.3786 8.74465 59.6021 10.8036 60.377C12.778 61.1402 15.0305 61.6729 18.3252 61.8181C21.6314 61.9639 22.6855 61.9998 31.1031 61.9998C39.5208 61.9998 40.5744 61.9639 43.881 61.8181C47.1753 61.6729 49.4401 61.1402 51.4021 60.377C55.5688 58.7661 58.8631 55.4718 60.4741 51.3055C61.2367 49.3312 61.7699 47.0782 61.9152 43.7839C62.0604 40.4773 62.0969 39.4237 62.0969 31.0061C62.0969 22.5884 62.0846 21.5348 61.9393 18.2282ZM56.3561 43.5417C56.2227 46.5696 55.7141 48.2047 55.2902 49.2948C54.2484 51.9958 52.1047 54.1395 49.4037 55.1813C48.3136 55.6052 46.6667 56.1138 43.6506 56.2467C40.3804 56.3925 39.3997 56.4284 31.1272 56.4284C22.8548 56.4284 21.8618 56.3925 18.6034 56.2467C15.5755 56.1138 13.9404 55.6052 12.8503 55.1813C11.5062 54.6845 10.2827 53.8972 9.28968 52.8678C8.26018 51.8624 7.47292 50.6512 6.97615 49.3071C6.55224 48.217 6.04364 46.5696 5.91069 43.554C5.76497 40.2838 5.72902 39.3026 5.72902 31.0302C5.72902 22.7578 5.76497 21.7647 5.91069 18.5068C6.04364 15.4789 6.55224 13.8438 6.97615 12.7538C7.47292 11.4092 8.26018 10.1862 9.30198 9.19262C10.3069 8.16312 11.5181 7.37586 12.8626 6.87956C13.9527 6.45565 15.6001 5.94705 18.6157 5.81364C21.8859 5.66839 22.8671 5.63196 31.1391 5.63196C39.4238 5.63196 40.4046 5.66839 43.6629 5.81364C46.6908 5.94705 48.3259 6.45565 49.416 6.87956C50.7601 7.37586 51.9836 8.16312 52.9766 9.19262C54.0061 10.198 54.7934 11.4092 55.2902 12.7538C55.7141 13.8438 56.2227 15.4907 56.3561 18.5068C56.5013 21.777 56.5378 22.7578 56.5378 31.0302C56.5378 39.3026 56.5013 40.2715 56.3561 43.5417Z" fill="#656565"/>
<path d="M31.115 15.0791C22.3221 15.0791 15.188 22.2127 15.188 31.0061C15.188 39.7994 22.3221 46.933 31.115 46.933C39.9083 46.933 47.0419 39.7994 47.0419 31.0061C47.0419 22.2127 39.9083 15.0791 31.115 15.0791ZM31.115 41.3375C25.4106 41.3375 20.7836 36.7109 20.7836 31.0061C20.7836 25.3012 25.4106 20.6746 31.115 20.6746C36.8198 20.6746 41.4464 25.3012 41.4464 31.0061C41.4464 36.7109 36.8198 41.3375 31.115 41.3375V41.3375Z" fill="#656565"/>
<path d="M51.3903 14.4494C51.3903 16.5027 49.7254 18.1676 47.6716 18.1676C45.6183 18.1676 43.9534 16.5027 43.9534 14.4494C43.9534 12.3956 45.6183 10.7312 47.6716 10.7312C49.7254 10.7312 51.3903 12.3956 51.3903 14.4494V14.4494Z" fill="#656565"/>
</g>
<defs>
<clipPath id="clip0">
<rect width="62" height="62" fill="white"/>
</clipPath>
</defs>
</svg>
