<svg width="105" height="95" viewBox="0 0 105 95" fill="none" xmlns="http://www.w3.org/2000/svg">
<path d="M12.1094 85.4883C11.9336 86.9922 11.377 88.1543 10.4395 88.9746C9.50846 89.7884 8.26823 90.1953 6.71875 90.1953C5.03906 90.1953 3.69141 89.5931 2.67578 88.3887C1.66667 87.1842 1.16211 85.5729 1.16211 83.5547V82.1875C1.16211 80.8659 1.39648 79.7038 1.86523 78.7012C2.34049 77.6986 3.01107 76.9303 3.87695 76.3965C4.74284 75.8561 5.74544 75.5859 6.88477 75.5859C8.39518 75.5859 9.60612 76.0091 10.5176 76.8555C11.429 77.6953 11.9596 78.8607 12.1094 80.3516H10.2246C10.0618 79.2188 9.70703 78.3984 9.16016 77.8906C8.61979 77.3828 7.86133 77.1289 6.88477 77.1289C5.68685 77.1289 4.74609 77.5716 4.0625 78.457C3.38542 79.3424 3.04688 80.6022 3.04688 82.2363V83.6133C3.04688 85.1562 3.36914 86.3835 4.01367 87.2949C4.6582 88.2064 5.5599 88.6621 6.71875 88.6621C7.76042 88.6621 8.55794 88.4277 9.11133 87.959C9.67122 87.4837 10.0423 86.6602 10.2246 85.4883H12.1094ZM13.916 84.6191C13.916 83.584 14.1178 82.653 14.5215 81.8262C14.9316 80.9993 15.498 80.3613 16.2207 79.9121C16.9499 79.4629 17.7799 79.2383 18.7109 79.2383C20.1497 79.2383 21.3118 79.7363 22.1973 80.7324C23.0892 81.7285 23.5352 83.0534 23.5352 84.707V84.834C23.5352 85.8626 23.3366 86.7871 22.9395 87.6074C22.5488 88.4212 21.9857 89.056 21.25 89.5117C20.5208 89.9674 19.681 90.1953 18.7305 90.1953C17.2982 90.1953 16.1361 89.6973 15.2441 88.7012C14.3587 87.7051 13.916 86.3867 13.916 84.7461V84.6191ZM15.7324 84.834C15.7324 86.0059 16.0026 86.9466 16.543 87.6562C17.0898 88.3659 17.819 88.7207 18.7305 88.7207C19.6484 88.7207 20.3776 88.3626 20.918 87.6465C21.4583 86.9238 21.7285 85.9147 21.7285 84.6191C21.7285 83.4603 21.4518 82.5228 20.8984 81.8066C20.3516 81.084 19.6224 80.7227 18.7109 80.7227C17.819 80.7227 17.0996 81.0775 16.5527 81.7871C16.0059 82.4967 15.7324 83.5124 15.7324 84.834ZM30.9082 81.0547C30.6348 81.0091 30.3385 80.9863 30.0195 80.9863C28.8346 80.9863 28.0306 81.4909 27.6074 82.5V90H25.8008V79.4336H27.5586L27.5879 80.6543C28.1803 79.7103 29.0202 79.2383 30.1074 79.2383C30.459 79.2383 30.7259 79.2839 30.9082 79.375V81.0547ZM36.7676 90.1953C35.3353 90.1953 34.1699 89.7266 33.2715 88.7891C32.373 87.8451 31.9238 86.5853 31.9238 85.0098V84.6777C31.9238 83.6296 32.1224 82.6953 32.5195 81.875C32.9232 81.0482 33.4831 80.4036 34.1992 79.9414C34.9219 79.4727 35.7031 79.2383 36.543 79.2383C37.9167 79.2383 38.9844 79.6908 39.7461 80.5957C40.5078 81.5007 40.8887 82.7962 40.8887 84.4824V85.2344H33.7305C33.7565 86.276 34.0592 87.1191 34.6387 87.7637C35.2246 88.4017 35.9668 88.7207 36.8652 88.7207C37.5033 88.7207 38.0436 88.5905 38.4863 88.3301C38.929 88.0697 39.3164 87.7246 39.6484 87.2949L40.752 88.1543C39.8665 89.515 38.5384 90.1953 36.7676 90.1953ZM36.543 80.7227C35.8138 80.7227 35.2018 80.9896 34.707 81.5234C34.2122 82.0508 33.9062 82.793 33.7891 83.75H39.082V83.6133C39.0299 82.6953 38.7826 81.9857 38.3398 81.4844C37.8971 80.9766 37.2982 80.7227 36.543 80.7227ZM60.498 90.1953C59.0658 90.1953 57.9004 89.7266 57.002 88.7891C56.1035 87.8451 55.6543 86.5853 55.6543 85.0098V84.6777C55.6543 83.6296 55.8529 82.6953 56.25 81.875C56.6536 81.0482 57.2135 80.4036 57.9297 79.9414C58.6523 79.4727 59.4336 79.2383 60.2734 79.2383C61.6471 79.2383 62.7148 79.6908 63.4766 80.5957C64.2383 81.5007 64.6191 82.7962 64.6191 84.4824V85.2344H57.4609C57.487 86.276 57.7897 87.1191 58.3691 87.7637C58.9551 88.4017 59.6973 88.7207 60.5957 88.7207C61.2337 88.7207 61.7741 88.5905 62.2168 88.3301C62.6595 88.0697 63.0469 87.7246 63.3789 87.2949L64.4824 88.1543C63.597 89.515 62.2689 90.1953 60.498 90.1953ZM60.2734 80.7227C59.5443 80.7227 58.9323 80.9896 58.4375 81.5234C57.9427 82.0508 57.6367 82.793 57.5195 83.75H62.8125V83.6133C62.7604 82.6953 62.513 81.9857 62.0703 81.4844C61.6276 80.9766 61.0286 80.7227 60.2734 80.7227ZM72.8711 87.1973C72.8711 86.709 72.6855 86.3314 72.3145 86.0645C71.9499 85.791 71.3086 85.5566 70.3906 85.3613C69.4792 85.166 68.7533 84.9316 68.2129 84.6582C67.679 84.3848 67.2819 84.0592 67.0215 83.6816C66.7676 83.304 66.6406 82.8548 66.6406 82.334C66.6406 81.4681 67.0052 80.7357 67.7344 80.1367C68.4701 79.5378 69.4076 79.2383 70.5469 79.2383C71.7448 79.2383 72.7148 79.5475 73.457 80.166C74.2057 80.7845 74.5801 81.5755 74.5801 82.5391H72.7637C72.7637 82.0443 72.5521 81.6178 72.1289 81.2598C71.7122 80.9017 71.1849 80.7227 70.5469 80.7227C69.8893 80.7227 69.375 80.8659 69.0039 81.1523C68.6328 81.4388 68.4473 81.8132 68.4473 82.2754C68.4473 82.7116 68.6198 83.0404 68.9648 83.2617C69.3099 83.4831 69.9316 83.6947 70.8301 83.8965C71.735 84.0983 72.4674 84.3392 73.0273 84.6191C73.5872 84.8991 74.0007 85.2376 74.2676 85.6348C74.541 86.0254 74.6777 86.5039 74.6777 87.0703C74.6777 88.0143 74.3001 88.7728 73.5449 89.3457C72.7897 89.9121 71.8099 90.1953 70.6055 90.1953C69.7591 90.1953 69.0104 90.0456 68.3594 89.7461C67.7083 89.4466 67.1973 89.0299 66.8262 88.4961C66.4616 87.9557 66.2793 87.373 66.2793 86.748H68.0859C68.1185 87.3535 68.3594 87.8353 68.8086 88.1934C69.2643 88.5449 69.8633 88.7207 70.6055 88.7207C71.2891 88.7207 71.8359 88.584 72.2461 88.3105C72.6628 88.0306 72.8711 87.6595 72.8711 87.1973ZM78.9941 90H77.1875V79.4336H78.9941V90ZM77.041 76.6309C77.041 76.3379 77.1289 76.0905 77.3047 75.8887C77.487 75.6868 77.7539 75.5859 78.1055 75.5859C78.457 75.5859 78.724 75.6868 78.9062 75.8887C79.0885 76.0905 79.1797 76.3379 79.1797 76.6309C79.1797 76.9238 79.0885 77.168 78.9062 77.3633C78.724 77.5586 78.457 77.6562 78.1055 77.6562C77.7539 77.6562 77.487 77.5586 77.3047 77.3633C77.1289 77.168 77.041 76.9238 77.041 76.6309ZM81.4648 84.6289C81.4648 82.9818 81.8457 81.6732 82.6074 80.7031C83.3691 79.7266 84.3783 79.2383 85.6348 79.2383C86.9238 79.2383 87.9297 79.694 88.6523 80.6055L88.7402 79.4336H90.3906V89.7461C90.3906 91.1133 89.9837 92.1908 89.1699 92.9785C88.3626 93.7663 87.2754 94.1602 85.9082 94.1602C85.1465 94.1602 84.401 93.9974 83.6719 93.6719C82.9427 93.3464 82.3861 92.9004 82.002 92.334L82.9395 91.25C83.7142 92.207 84.6615 92.6855 85.7812 92.6855C86.6602 92.6855 87.3438 92.4382 87.832 91.9434C88.3268 91.4486 88.5742 90.752 88.5742 89.8535V88.9453C87.8516 89.7786 86.8652 90.1953 85.6152 90.1953C84.3783 90.1953 83.3757 89.6973 82.6074 88.7012C81.8457 87.7051 81.4648 86.3477 81.4648 84.6289ZM83.2812 84.834C83.2812 86.0254 83.5254 86.9629 84.0137 87.6465C84.502 88.3236 85.1855 88.6621 86.0645 88.6621C87.2038 88.6621 88.0404 88.1445 88.5742 87.1094V82.2852C88.0208 81.276 87.1908 80.7715 86.084 80.7715C85.2051 80.7715 84.5182 81.1133 84.0234 81.7969C83.5286 82.4805 83.2812 83.4928 83.2812 84.834ZM94.834 79.4336L94.8926 80.7617C95.6999 79.7461 96.7546 79.2383 98.0566 79.2383C100.29 79.2383 101.416 80.498 101.436 83.0176V90H99.6289V83.0078C99.6224 82.2461 99.4466 81.6829 99.1016 81.3184C98.763 80.9538 98.2324 80.7715 97.5098 80.7715C96.9238 80.7715 96.4095 80.9277 95.9668 81.2402C95.5241 81.5527 95.179 81.9629 94.9316 82.4707V90H93.125V79.4336H94.834Z" fill="#222C2A"/>
<path d="M43.2715 90V75.7812H47.2852C48.5221 75.7812 49.6159 76.0547 50.5664 76.6016C51.5169 77.1484 52.2493 77.9264 52.7637 78.9355C53.2845 79.9447 53.5482 81.1035 53.5547 82.4121V83.3203C53.5547 84.6615 53.2943 85.8366 52.7734 86.8457C52.2591 87.8548 51.5202 88.6296 50.5566 89.1699C49.5996 89.7103 48.4831 89.987 47.207 90H43.2715ZM45.1465 77.3242V88.4668H47.1191C48.5645 88.4668 49.6875 88.0176 50.4883 87.1191C51.2956 86.2207 51.6992 84.9414 51.6992 83.2812V82.4512C51.6992 80.8366 51.3184 79.5833 50.5566 78.6914C49.8014 77.793 48.7272 77.3372 47.334 77.3242H45.1465Z" fill="#A20505"/>
<mask id="path-2-inside-1" fill="white">
<path fill-rule="evenodd" clip-rule="evenodd" d="M62.3631 22.9695C61.6826 29.3399 58.1177 34.848 53 38.1623C47.8823 34.848 44.3174 29.3399 43.6369 22.9695C46.4496 21.544 49.631 20.7407 53 20.7407C56.369 20.7407 59.5504 21.544 62.3631 22.9695ZM53 3.31921C58.7059 7.01445 62.4815 13.4367 62.4815 20.7407C62.4815 21.4937 62.4414 22.2373 62.3631 22.9695C68.4852 26.072 72.8606 32.1221 73.6224 39.2528C70.8097 40.6782 67.6283 41.4815 64.2593 41.4815C60.1085 41.4815 56.2426 40.2622 53 38.1623C49.7574 40.2622 45.8915 41.4815 41.7407 41.4815C38.3717 41.4815 35.1903 40.6782 32.3776 39.2528C33.1394 32.1221 37.5148 26.072 43.6369 22.9695C43.5586 22.2373 43.5185 21.4937 43.5185 20.7407C43.5185 13.4367 47.2941 7.01445 53 3.31921ZM53 3.31921C49.7574 1.21928 45.8915 0 41.7407 0C30.2859 0 21 9.28595 21 20.7407C21 28.8265 25.627 35.8316 32.3776 39.2528C32.2994 39.985 32.2593 40.7285 32.2593 41.4815C32.2593 52.9363 41.5452 62.2222 53 62.2222C64.4548 62.2222 73.7407 52.9363 73.7407 41.4815C73.7407 40.7285 73.7006 39.985 73.6224 39.2528C80.373 35.8316 85 28.8265 85 20.7407C85 9.28595 75.7141 0 64.2593 0C60.1085 0 56.2426 1.21928 53 3.31921Z"/>
</mask>
<path fill-rule="evenodd" clip-rule="evenodd" d="M62.3631 22.9695C61.6826 29.3399 58.1177 34.848 53 38.1623C47.8823 34.848 44.3174 29.3399 43.6369 22.9695C46.4496 21.544 49.631 20.7407 53 20.7407C56.369 20.7407 59.5504 21.544 62.3631 22.9695ZM53 3.31921C58.7059 7.01445 62.4815 13.4367 62.4815 20.7407C62.4815 21.4937 62.4414 22.2373 62.3631 22.9695C68.4852 26.072 72.8606 32.1221 73.6224 39.2528C70.8097 40.6782 67.6283 41.4815 64.2593 41.4815C60.1085 41.4815 56.2426 40.2622 53 38.1623C49.7574 40.2622 45.8915 41.4815 41.7407 41.4815C38.3717 41.4815 35.1903 40.6782 32.3776 39.2528C33.1394 32.1221 37.5148 26.072 43.6369 22.9695C43.5586 22.2373 43.5185 21.4937 43.5185 20.7407C43.5185 13.4367 47.2941 7.01445 53 3.31921ZM53 3.31921C49.7574 1.21928 45.8915 0 41.7407 0C30.2859 0 21 9.28595 21 20.7407C21 28.8265 25.627 35.8316 32.3776 39.2528C32.2994 39.985 32.2593 40.7285 32.2593 41.4815C32.2593 52.9363 41.5452 62.2222 53 62.2222C64.4548 62.2222 73.7407 52.9363 73.7407 41.4815C73.7407 40.7285 73.7006 39.985 73.6224 39.2528C80.373 35.8316 85 28.8265 85 20.7407C85 9.28595 75.7141 0 64.2593 0C60.1085 0 56.2426 1.21928 53 3.31921Z" fill="#222C2A"/>
<path d="M54.0872 39.841C59.6937 36.2101 63.605 30.1724 64.3518 23.1819L60.3745 22.757C59.7601 28.5074 56.5418 33.4858 51.9128 36.4836L54.0872 39.841ZM41.6482 23.1819C42.395 30.1724 46.3063 36.2101 51.9128 39.841L54.0872 36.4836C49.4582 33.4858 46.2399 28.5074 45.6255 22.757L41.6482 23.1819ZM44.541 24.7534C47.0799 23.4667 49.9523 22.7407 53 22.7407V18.7407C49.3097 18.7407 45.8193 19.6213 42.7328 21.1855L44.541 24.7534ZM53 22.7407C56.0477 22.7407 58.9201 23.4667 61.459 24.7534L63.2672 21.1855C60.1807 19.6213 56.6903 18.7407 53 18.7407V22.7407ZM64.4815 20.7407C64.4815 12.7303 60.3382 5.68875 54.0872 1.64049L51.9128 4.99792C57.0737 8.34016 60.4815 14.1431 60.4815 20.7407H64.4815ZM64.3518 23.1819C64.4376 22.3793 64.4815 21.5648 64.4815 20.7407H60.4815C60.4815 21.4226 60.4452 22.0953 60.3745 22.757L64.3518 23.1819ZM61.459 24.7534C66.9949 27.5589 70.946 33.0284 71.6337 39.4652L75.6111 39.0403C74.7752 31.2159 69.9755 24.5851 63.2672 21.1855L61.459 24.7534ZM72.7183 37.4688C70.1794 38.7555 67.307 39.4815 64.2593 39.4815V43.4815C67.9496 43.4815 71.44 42.601 74.5265 41.0367L72.7183 37.4688ZM64.2593 39.4815C60.5058 39.4815 57.0157 38.3801 54.0872 36.4836L51.9128 39.841C55.4694 42.1443 59.7112 43.4815 64.2593 43.4815V39.4815ZM51.9128 36.4836C48.9843 38.3801 45.4942 39.4815 41.7407 39.4815V43.4815C46.2888 43.4815 50.5306 42.1443 54.0872 39.841L51.9128 36.4836ZM41.7407 39.4815C38.693 39.4815 35.8206 38.7555 33.2817 37.4688L31.4735 41.0367C34.56 42.601 38.0504 43.4815 41.7407 43.4815V39.4815ZM34.3663 39.4652C35.054 33.0284 39.0051 27.5589 44.541 24.7534L42.7328 21.1855C36.0245 24.5851 31.2248 31.2159 30.3889 39.0403L34.3663 39.4652ZM41.5185 20.7407C41.5185 21.5648 41.5624 22.3793 41.6482 23.1819L45.6255 22.757C45.5548 22.0952 45.5185 21.4226 45.5185 20.7407H41.5185ZM51.9128 1.64049C45.6618 5.68875 41.5185 12.7303 41.5185 20.7407H45.5185C45.5185 14.1431 48.9263 8.34016 54.0872 4.99792L51.9128 1.64049ZM41.7407 2C45.4942 2 48.9843 3.10136 51.9128 4.99792L54.0872 1.64049C50.5306 -0.662807 46.2888 -2 41.7407 -2V2ZM23 20.7407C23 10.3905 31.3905 2 41.7407 2V-2C29.1814 -2 19 8.18138 19 20.7407H23ZM33.2817 37.4688C27.1771 34.375 23 28.0439 23 20.7407H19C19 29.6091 24.0768 37.2882 31.4735 41.0368L33.2817 37.4688ZM34.2593 41.4815C34.2593 40.7996 34.2956 40.127 34.3663 39.4652L30.3889 39.0403C30.3032 39.8429 30.2593 40.6574 30.2593 41.4815H34.2593ZM53 60.2222C42.6498 60.2222 34.2593 51.8317 34.2593 41.4815H30.2593C30.2593 54.0408 40.4406 64.2222 53 64.2222V60.2222ZM71.7407 41.4815C71.7407 51.8317 63.3502 60.2222 53 60.2222V64.2222C65.5594 64.2222 75.7407 54.0408 75.7407 41.4815H71.7407ZM71.6337 39.4652C71.7044 40.127 71.7407 40.7996 71.7407 41.4815H75.7407C75.7407 40.6574 75.6968 39.8429 75.6111 39.0403L71.6337 39.4652ZM83 20.7407C83 28.0439 78.8229 34.375 72.7183 37.4688L74.5265 41.0368C81.9232 37.2882 87 29.6091 87 20.7407H83ZM64.2593 2C74.6095 2 83 10.3905 83 20.7407H87C87 8.18138 76.8186 -2 64.2593 -2V2ZM54.0872 4.99792C57.0157 3.10136 60.5058 2 64.2593 2V-2C59.7112 -2 55.4694 -0.662807 51.9128 1.64049L54.0872 4.99792Z" fill="black" mask="url(#path-2-inside-1)"/>
</svg>
