<svg width="161" height="161" viewBox="0 0 161 161" fill="none" xmlns="http://www.w3.org/2000/svg">
<g clip-path="url(#clip0)">
<path d="M161 30.5799C155.013 33.2063 148.633 34.9471 141.982 35.7923C148.824 31.7069 154.047 25.2871 156.502 17.549C150.122 21.3526 143.079 24.0393 135.572 25.5386C129.514 19.0886 120.881 15.0938 111.462 15.0938C93.1888 15.0938 78.4774 29.9259 78.4774 48.1088C78.4774 50.7251 78.6988 53.2407 79.2422 55.6356C51.8018 54.2972 27.5209 41.1456 11.2096 21.1111C8.36194 26.0518 6.69156 31.7069 6.69156 37.7948C6.69156 49.2258 12.5781 59.3587 21.3526 65.2251C16.0497 65.1245 10.8474 63.5849 6.44 61.1599C6.44 61.2605 6.44 61.3913 6.44 61.5221C6.44 77.5617 17.8811 90.8845 32.8842 93.9536C30.1976 94.6881 27.2694 95.0403 24.2305 95.0403C22.1174 95.0403 19.9841 94.9196 17.9817 94.4768C22.2582 107.548 34.3936 117.158 48.8233 117.47C37.5935 126.254 23.3349 131.547 7.89906 131.547C5.19225 131.547 2.59612 131.426 0 131.094C14.6208 140.523 31.9484 145.906 50.6345 145.906C111.372 145.906 144.578 95.5938 144.578 51.9829C144.578 50.5238 144.528 49.1151 144.457 47.7164C151.008 43.0675 156.512 37.2614 161 30.5799Z" fill="#656565"/>
</g>
<defs>
<clipPath id="clip0">
<rect width="161" height="161" fill="white"/>
</clipPath>
</defs>
</svg>
